HIERARCHY
ROOT Hips
{
	OFFSET 51.666302 14.127090 55.696003
	CHANNELS 6 Xposition Yposition Zposition Xrotation Yrotation Zrotation
	JOINT spine
	{
		OFFSET 0.000000 -0.458068 7.965679
		CHANNELS 3 Xrotation Yrotation Zrotation
		JOINT spine1
		{
			OFFSET 0.000000 -0.000002 10.243095
			CHANNELS 3 Xrotation Yrotation Zrotation
			JOINT spine2
			{
				OFFSET 0.000000 -0.000001 9.814751
				CHANNELS 3 Xrotation Yrotation Zrotation
				JOINT Neck
				{
					OFFSET 0.000000 -1.201385 25.198601
					CHANNELS 3 Xrotation Yrotation Zrotation
					JOINT Head
					{
						OFFSET 0.000000 -0.000001 7.613152
						CHANNELS 3 Xrotation Yrotation Zrotation
						End Site
						{
							OFFSET 0.000000 6.077326 18.428101
						}
					}
				}
				JOINT RightShoulder
				{
					OFFSET -4.132702 0.575449 10.599197
					CHANNELS 3 Xrotation Yrotation Zrotation
					JOINT RightArm
					{
						OFFSET 0.000000 -0.000002 13.901802
						CHANNELS 3 Xrotation Yrotation Zrotation
						JOINT RightArmRoll
						{
							OFFSET 0.000000 -0.000002 7.017883
							CHANNELS 3 Xrotation Yrotation Zrotation
							JOINT RightForeArm
							{
								OFFSET 0.000000 -0.000003 20.440605
								CHANNELS 3 Xrotation Yrotation Zrotation
								JOINT RightForeArmRoll
								{
									OFFSET 0.000000 -0.000002 7.875153
									CHANNELS 3 Xrotation Yrotation Zrotation
									JOINT RightHand
									{
										OFFSET 0.000000 -0.000002 15.803696
										CHANNELS 3 Xrotation Yrotation Zrotation
										End Site
										{
											OFFSET 0.000000 0.000000 0.100006
										}
									}
								}
							}
						}
					}
				}
				JOINT LeftShoulder
				{
					OFFSET 4.132702 0.575449 10.599197
					CHANNELS 3 Xrotation Yrotation Zrotation
					JOINT LeftArm
					{
						OFFSET 0.000000 -0.000002 13.901802
						CHANNELS 3 Xrotation Yrotation Zrotation
						JOINT LeftArmRoll
						{
							OFFSET 0.000000 -0.000002 7.017883
							CHANNELS 3 Xrotation Yrotation Zrotation
							JOINT LeftForeArm
							{
								OFFSET 0.000000 -0.000003 20.440605
								CHANNELS 3 Xrotation Yrotation Zrotation
								JOINT LeftForeArmRoll
								{
									OFFSET 0.000000 -0.000002 7.875153
									CHANNELS 3 Xrotation Yrotation Zrotation
									JOINT LeftHand
									{
										OFFSET 0.000000 -0.000002 15.803696
										CHANNELS 3 Xrotation Yrotation Zrotation
										End Site
										{
											OFFSET 0.000000 0.000000 0.100006
										}
									}
								}
							}
						}
					}
				}
			}
		}
	}
	JOINT RightUpLeg
	{
		OFFSET -7.060482 1.086101 -1.294701
		CHANNELS 3 Xrotation Yrotation Zrotation
		JOINT RightUpLegRoll
		{
			OFFSET 0.000000 -0.000003 18.530796
			CHANNELS 3 Xrotation Yrotation Zrotation
			JOINT RightLeg
			{
				OFFSET 0.000000 0.000003 -22.947598
				CHANNELS 3 Xrotation Yrotation Zrotation
				JOINT RightLegRoll
				{
					OFFSET 0.000000 -0.000003 23.022594
					CHANNELS 3 Xrotation Yrotation Zrotation
					JOINT RightFoot
					{
						OFFSET 0.000000 -0.000004 19.162498
						CHANNELS 3 Xrotation Yrotation Zrotation
						JOINT RightToeBase
						{
							OFFSET 0.000000 -0.000002 16.018799
							CHANNELS 3 Xrotation Yrotation Zrotation
							End Site
							{
								OFFSET 0.006790 0.894203 7.757820
							}
						}
					}
				}
			}
		}
	}
	JOINT LeftUpLeg
	{
		OFFSET 7.060482 1.086101 -1.294701
		CHANNELS 3 Xrotation Yrotation Zrotation
		JOINT LeftUpLegRoll
		{
			OFFSET 0.000000 -0.000003 18.530895
			CHANNELS 3 Xrotation Yrotation Zrotation
			JOINT LeftLeg
			{
				OFFSET 0.000000 -0.000004 22.947502
				CHANNELS 3 Xrotation Yrotation Zrotation
				JOINT LeftLegRoll
				{
					OFFSET 0.000000 -0.000004 23.235504
					CHANNELS 3 Xrotation Yrotation Zrotation
					JOINT LeftFoot
					{
						OFFSET 0.000000 -0.000004 18.949600
						CHANNELS 3 Xrotation Yrotation Zrotation
						JOINT LeftToeBase
						{
							OFFSET 0.000000 -0.000002 16.018799
							CHANNELS 3 Xrotation Yrotation Zrotation
							End Site
							{
								OFFSET -0.030430 0.894203 7.757828
							}
						}
					}
				}
			}
		}
	}
}
MOTION
Frames: 8
Frame Time: 0.041667
52.252697 -31.488010 95.730606 -1.204892 0.244466 4.576702 -1.836406 -0.138740 0.018535 0.330041 -0.267749 0.034113 1.975131 -0.267324 0.037319 21.680547 -2.012420 -0.714218 -4.088129 0.014344 -0.781417 6.016821 -71.126633 5.146630 -55.157609 -114.725936 -33.338351 0.000003 0.000004 -0.000001 0.032083 -3.732140 -0.360745 -0.000003 -0.000011 -3.056691 -5.000180 -7.999610 0.000072 1.735608 69.872405 -0.602451 -44.416730 116.249751 30.691858 0.000000 0.000011 0.000002 5.494441 8.845144 -0.438898 -0.000003 -0.000002 3.007359 -5.000213 7.998881 -0.000146 -0.314523 -178.353014 -3.652500 -179.999991 0.000005 -1.110994 172.880899 -2.071914 -0.727711 -0.000004 0.000005 0.119669 70.016467 6.912400 2.001653 25.456952 -7.355614 -0.000001 -1.683171 175.892766 1.862490 -0.000004 -0.000004 -1.117180 -8.345728 1.540341 0.385135 0.000003 -0.000001 -0.125527 69.779665 -6.926850 -1.998989 25.456955 7.355613 0.000000 
52.236694 -31.496616 95.742798 -1.196651 0.244509 4.582397 -1.829226 -0.138484 0.020962 0.344419 -0.268676 0.039030 1.989512 -0.268190 0.042248 21.632522 -2.013322 -0.727964 -4.054748 0.015334 -0.794473 5.958806 -71.111224 5.085233 -55.148460 -114.764158 -33.357220 0.000001 0.000003 -0.000001 0.032088 -3.742210 -0.360745 -0.000001 -0.000011 -3.056690 -5.000183 -7.999610 0.000071 1.731843 69.847031 -0.601317 -44.421245 116.321113 30.686165 -0.000000 0.000011 0.000001 5.477214 8.801696 -0.437446 -0.000002 -0.000001 3.007358 -5.000209 7.998884 -0.000145 -0.338021 -178.354025 -3.658041 -179.999991 0.000005 -1.110992 172.875107 -2.067916 -0.727423 -0.000004 0.000005 0.119626 70.015190 6.912400 2.001633 25.456953 -7.355615 -0.000001 -1.698188 175.893791 1.864236 -0.000004 -0.000004 -1.116930 -8.331926 1.541188 0.385134 0.000002 -0.000001 -0.125528 69.762603 -6.926846 -1.999352 25.456955 7.355613 0.000001 
52.240097 -31.462811 95.737503 -1.189871 0.244671 4.587891 -1.821738 -0.138261 0.023572 0.359387 -0.269699 0.044342 2.004472 -0.269150 0.047572 21.582713 -2.015010 -0.742391 -4.020151 0.016925 -0.808239 5.897658 -71.095589 5.020424 -55.138901 -114.802134 -33.375917 0.000001 0.000003 -0.000002 0.032085 -3.752489 -0.360745 0.000000 -0.000011 -3.056690 -5.000181 -7.999608 0.000073 1.728831 69.820454 -0.601187 -44.422027 116.392243 30.678153 -0.000000 0.000010 0.000001 5.462561 8.759561 -0.436299 -0.000005 -0.000002 3.007360 -5.000210 7.998883 -0.000146 -0.359339 -178.356033 -3.663659 -179.999991 0.000005 -1.110995 172.870080 -2.063935 -0.728108 -0.000004 0.000005 0.119560 70.013599 6.912427 2.001636 25.456952 -7.355616 -0.000000 -1.710702 175.893832 1.865232 -0.000004 -0.000005 -1.116730 -8.316935 1.542285 0.385131 0.000003 -0.000001 -0.125531 69.744913 -6.926844 -1.999557 25.456959 7.355614 0.000000 
52.232494 -31.456013 95.731598 -1.184112 0.244913 4.593242 -1.814055 -0.138059 0.026311 0.374767 -0.270788 0.049934 2.019852 -0.270173 0.053175 21.531608 -2.017245 -0.757276 -3.984713 0.018931 -0.822500 5.834369 -71.079805 4.953287 -55.127492 -114.840615 -33.392768 -0.000002 0.000003 -0.000001 0.032085 -3.762930 -0.360744 0.000000 -0.000011 -3.056690 -5.000178 -7.999610 0.000073 1.726350 69.793072 -0.601741 -44.420108 116.463577 30.668273 -0.000000 0.000011 0.000002 5.449720 8.718346 -0.435366 -0.000001 -0.000002 3.007359 -5.000212 7.998883 -0.000145 -0.379127 -178.358028 -3.669342 -179.999991 0.000005 -1.110995 172.865613 -2.059944 -0.727772 -0.000005 0.000005 0.119474 70.012007 6.912387 2.001630 25.456952 -7.355616 -0.000000 -1.721456 175.893846 1.865692 -0.000005 -0.000004 -1.116560 -8.301123 1.543575 0.385127 0.000002 -0.000001 -0.125534 69.726676 -6.926854 -1.999799 25.456953 7.355613 0.000001 
52.236195 -31.434910 95.733902 -1.178932 0.245204 4.598505 -1.806246 -0.137868 0.029124 0.390384 -0.271916 0.055682 2.035472 -0.271230 0.058938 21.479804 -2.019778 -0.772446 -3.948794 0.021166 -0.837049 5.769897 -71.063849 4.884856 -55.116153 -114.879083 -33.409679 0.000000 0.000003 -0.000002 0.032084 -3.773450 -0.360744 -0.000001 -0.000011 -3.056691 -5.000182 -7.999611 0.000072 1.724173 69.765185 -0.602687 -44.415853 116.535199 30.656566 -0.000002 0.000011 0.000001 5.437891 8.677652 -0.434558 -0.000003 -0.000002 3.007360 -5.000214 7.998882 -0.000146 -0.398046 -178.360036 -3.675052 -179.999991 0.000005 -1.109997 172.861433 -2.055953 -0.728436 -0.000004 0.000005 0.119384 70.010204 6.912407 2.001645 25.456955 -7.355616 -0.000000 -1.731212 175.893873 1.865841 -0.000004 -0.000004 -1.116410 -8.284832 1.544955 0.385119 0.000003 -0.000001 -0.125538 69.708132 -6.926839 -2.000153 25.456957 7.355613 0.000000 
52.232098 -31.413818 95.736099 -1.173902 0.245506 4.603751 -1.798415 -0.137680 0.031955 0.406060 -0.273049 0.061472 2.051142 -0.272294 0.064740 21.427806 -2.022361 -0.787690 -3.912752 0.023444 -0.851672 5.705255 -71.047976 4.816234 -55.104716 -114.917468 -33.426584 0.000001 0.000004 0.000000 0.032084 -3.783990 -0.360745 -0.000002 -0.000011 -3.056690 -5.000177 -7.999610 0.000071 1.722066 69.737092 -0.603731 -44.411539 116.606738 30.644948 -0.000000 0.000010 0.000001 5.426341 8.637088 -0.433800 -0.000001 -0.000002 3.007359 -5.000215 7.998882 -0.000147 -0.416744 -178.362057 -3.680771 -179.999991 0.000005 -1.109996 172.857348 -2.051964 -0.728087 -0.000004 0.000005 0.119287 70.008510 6.912396 2.001649 25.456957 -7.355615 -0.000001 -1.740715 175.893900 1.865911 -0.000005 -0.000004 -1.116260 -8.268423 1.546375 0.385114 0.000003 -0.000001 -0.125542 69.689486 -6.926847 -2.000419 25.456955 7.355612 0.000001 
52.231895 -31.396614 95.735191 -1.168568 0.245787 4.609043 -1.790636 -0.137485 0.034749 0.421617 -0.274160 0.067182 2.066703 -0.273336 0.070463 21.376201 -2.024760 -0.802802 -3.876952 0.025580 -0.866156 5.641301 -71.031959 4.748362 -55.093470 -114.955936 -33.443666 0.000003 0.000003 -0.000002 0.032086 -3.794480 -0.360745 -0.000001 -0.000010 -3.056691 -5.000182 -7.999611 0.000071 1.719825 69.709300 -0.604596 -44.407831 116.678469 30.633433 -0.000001 0.000010 0.000002 5.414271 8.596267 -0.433000 -0.000001 -0.000002 3.007359 -5.000213 7.998883 -0.000146 -0.435882 -178.364038 -3.686473 -179.999991 0.000005 -1.109997 172.853100 -2.047973 -0.727741 -0.000004 0.000005 0.119197 70.006707 6.912418 2.001664 25.456952 -7.355615 -0.000000 -1.750732 175.893914 1.866137 -0.000004 -0.000004 -1.116110 -8.252250 1.547734 0.385107 0.000003 -0.000001 -0.125546 69.671051 -6.926851 -2.000672 25.456953 7.355614 -0.000000 
52.232395 -31.374111 95.729706 -1.162520 0.246010 4.614431 -1.783017 -0.137274 0.037452 0.436880 -0.275218 0.072696 2.081964 -0.274328 0.075990 21.325393 -2.026738 -0.817579 -3.841753 0.027392 -0.880287 5.579066 -71.016168 4.682357 -55.084198 -114.993912 -33.462664 0.000003 0.000003 -0.000002 0.032083 -3.804871 -0.360745 -0.000002 -0.000010 -3.056691 -5.000179 -7.999611 0.000073 1.717217 69.682123 -0.604977 -44.406581 116.749885 30.623778 0.000001 0.000011 0.000001 5.400923 8.554791 -0.432082 -0.000001 -0.000002 3.007359 -5.000209 7.998882 -0.000146 -0.456108 -178.366060 -3.692125 -179.999991 0.000005 -1.109997 172.848455 -2.042992 -0.728281 -0.000004 0.000005 0.119116 70.005115 6.912411 2.001661 25.456953 -7.355615 -0.000000 -1.761992 175.893941 1.866743 -0.000005 -0.000004 -1.115930 -8.236670 1.548963 0.385099 0.000002 -0.000001 -0.125549 69.652944 -6.926861 -2.001006 25.456957 7.355613 -0.000001 
